<svg width="50" height="50" viewBox="0 0 50 50" fill="none" xmlns="http://www.w3.org/2000/svg">
<path fill-rule="evenodd" clip-rule="evenodd" d="M43.75 32.8125C43.75 32.3981 43.5854 32.0007 43.2924 31.7076C42.9993 31.4146 42.6019 31.25 42.1875 31.25H32.8125C32.3981 31.25 32.0007 31.4146 31.7076 31.7076C31.4146 32.0007 31.25 32.3981 31.25 32.8125C31.25 33.2269 31.4146 33.6243 31.7076 33.9174C32.0007 34.2104 32.3981 34.375 32.8125 34.375H42.1875C42.6019 34.375 42.9993 34.2104 43.2924 33.9174C43.5854 33.6243 43.75 33.2269 43.75 32.8125ZM43.75 23.4375C43.75 23.0231 43.5854 22.6257 43.2924 22.3326C42.9993 22.0396 42.6019 21.875 42.1875 21.875H20.3125C19.8981 21.875 19.5007 22.0396 19.2076 22.3326C18.9146 22.6257 18.75 23.0231 18.75 23.4375C18.75 23.8519 18.9146 24.2493 19.2076 24.5424C19.5007 24.8354 19.8981 25 20.3125 25H42.1875C42.6019 25 42.9993 24.8354 43.2924 24.5424C43.5854 24.2493 43.75 23.8519 43.75 23.4375ZM43.75 14.0625C43.75 13.6481 43.5854 13.2507 43.2924 12.9576C42.9993 12.6646 42.6019 12.5 42.1875 12.5H7.8125C7.3981 12.5 7.00067 12.6646 6.70765 12.9576C6.41462 13.2507 6.25 13.6481 6.25 14.0625C6.25 14.4769 6.41462 14.8743 6.70765 15.1674C7.00067 15.4604 7.3981 15.625 7.8125 15.625H42.1875C42.6019 15.625 42.9993 15.4604 43.2924 15.1674C43.5854 14.8743 43.75 14.4769 43.75 14.0625Z" fill="white"/>
</svg>